<?xml version="1.0" standalone="no"?><svg xmlns="http://www.w3.org/2000/svg" viewBox="0 0 1440 320"><path fill="#0099ff" fill-opacity="1" d="M0,288L30,266.7C60,245,120,203,180,192C240,181,300,203,360,218.7C420,235,480,245,540,250.7C600,256,660,256,720,224C780,192,840,128,900,85.3C960,43,1020,21,1080,26.7C1140,32,1200,64,1260,80C1320,96,1380,96,1410,96L1440,96L1440,320L1410,320C1380,320,1320,320,1260,320C1200,320,1140,320,1080,320C1020,320,960,320,900,320C840,320,780,320,720,320C660,320,600,320,540,320C480,320,420,320,360,320C300,320,240,320,180,320C120,320,60,320,30,320L0,320Z"></path></svg>